<?xml version="1.0" encoding="utf-8"?>
<!-- Generator: Adobe Illustrator 16.0.0, SVG Export Plug-In . SVG Version: 6.00 Build 0)  -->
<!DOCTYPE svg PUBLIC "-//W3C//DTD SVG 1.1//EN" "http://www.w3.org/Graphics/SVG/1.1/DTD/svg11.dtd">
<svg version="1.1" id="Layer_1" xmlns="http://www.w3.org/2000/svg" xmlns:xlink="http://www.w3.org/1999/xlink" x="0px" y="0px"
	 width="200px" height="73px" viewBox="0 0 200 73" enable-background="new 0 0 200 73" xml:space="preserve">
<g>
	<g>
		<path fill="#6C7280" d="M108.761,33.71c-0.548-0.743-0.989-1.603-1.296-2.515c-0.095-0.224-0.142-0.459-0.21-0.692
			c-0.053-0.243-0.155-0.45-0.153-0.73l-0.047-0.686c-0.008-0.34,0.011-0.489,0.015-0.743c-0.007-0.443,0.071-0.949,0.139-1.444
			c0.072-0.494,0.205-0.955,0.324-1.429c0.307-0.922,0.662-1.842,1.192-2.667c0.229-0.435,0.552-0.807,0.828-1.212
			c0.327-0.363,0.624-0.759,0.99-1.087c0.688-0.704,1.503-1.271,2.346-1.78c0.865-0.47,1.772-0.884,2.734-1.125
			c0.951-0.285,1.945-0.379,2.935-0.425c0.565,0.028,0.914,0.006,1.451,0.077c0.513,0.066,1.032,0.132,1.505,0.267
			c0.976,0.213,1.901,0.609,2.792,1.058c0.865,0.495,1.706,1.053,2.426,1.75c0.385,0.322,0.694,0.72,1.042,1.081
			c0.293,0.405,0.634,0.779,0.882,1.216c0.563,0.833,0.963,1.764,1.301,2.709c0.295,0.959,0.519,1.951,0.564,2.958
			c0.013,0.265,0.034,0.471,0.037,0.786c-0.009,0.234-0.007,0.448-0.023,0.698c-0.026,0.277-0.037,0.488-0.081,0.818l-0.108,0.679
			c-0.199,1.015-0.519,2-0.94,2.902l-1.133-1.597l7.479-0.84l0.233-0.026l0.117-0.013l0.015-0.001
			c0.088-0.013-0.104,0.016-0.079,0.012l0.029-0.005l0.058-0.011l0.23-0.045l0.115-0.023l0.042-0.025
			c0.083-0.038,0.285-0.12,0.423-0.239c0.294-0.226,0.508-0.548,0.597-0.906c0.029-0.063,0.046-0.213,0.077-0.377l0.082-0.463
			c0.06-0.313,0.105-0.616,0.136-0.904l0.109-0.879c0.021-0.196,0.035-0.594,0.054-0.881c0.021-1.075-0.139-2.223-0.47-3.295
			c-0.332-1.076-0.843-2.099-1.505-3.013c-0.661-0.915-1.473-1.721-2.394-2.374c-0.932-0.662-1.923-1.136-3.061-1.496l-1.787-0.587
			l-1.758-0.482c-1.168-0.321-2.389-0.587-3.59-0.855c-1.212-0.243-2.425-0.487-3.651-0.674c-1.22-0.217-2.454-0.364-3.684-0.535
			c-2.466-0.307-4.945-0.513-7.429-0.687c-2.48-0.162-4.985-0.266-7.451-0.263h-0.23l-0.178-0.092
			c-2.557-1.33-5.12-2.665-7.694-3.963c-1.289-0.644-2.578-1.296-3.878-1.904c-0.649-0.306-1.299-0.621-1.951-0.896
			c-0.653-0.3-1.293-0.566-1.98-0.812c-0.676-0.26-1.352-0.516-2.029-0.728c-0.678-0.223-1.352-0.461-2.046-0.645
			c-0.692-0.189-1.376-0.413-2.078-0.564c-0.7-0.157-1.394-0.354-2.102-0.479c-0.707-0.128-1.41-0.286-2.122-0.39l-2.139-0.304
			L70.63,1.687l-2.164-0.123l2.171-0.035l2.173,0.066c0.725,0.034,1.446,0.118,2.17,0.177c0.724,0.066,1.44,0.187,2.162,0.277
			c0.723,0.088,1.432,0.248,2.15,0.369c0.72,0.116,1.423,0.304,2.135,0.458c0.713,0.148,1.416,0.354,2.123,0.545
			c0.713,0.183,1.402,0.402,2.089,0.624c0.688,0.205,1.397,0.454,2.074,0.722c0.695,0.251,1.355,0.548,2.025,0.831
			c1.342,0.565,2.658,1.167,3.979,1.765c2.64,1.199,5.254,2.437,7.858,3.713l-0.408-0.092c2.551-0.075,5.063-0.039,7.593,0.053
			c2.526,0.092,5.049,0.288,7.568,0.549c1.257,0.153,2.518,0.281,3.771,0.482c1.257,0.171,2.508,0.399,3.759,0.628
			c1.251,0.258,2.49,0.498,3.741,0.84l1.872,0.505l1.791,0.577c1.256,0.385,2.562,0.989,3.677,1.781
			c1.129,0.792,2.126,1.771,2.94,2.883c1.633,2.237,2.523,4.962,2.429,7.799c-0.023,0.338-0.025,0.569-0.067,0.996l-0.129,0.987
			c-0.04,0.336-0.091,0.653-0.15,0.956l-0.084,0.463c-0.029,0.143-0.045,0.306-0.116,0.542c-0.218,0.857-0.738,1.634-1.444,2.164
			c-0.354,0.27-0.724,0.468-1.233,0.626l-0.18,0.055l-0.115,0.022l-0.231,0.044l-0.058,0.011l-0.151,0.023l-0.116,0.012
			l-0.234,0.025l-7.482,0.799l-1.979,0.211l0.846-1.808c0.355-0.76,0.621-1.522,0.793-2.303l0.12-0.677l0.063-0.549
			c0.019-0.207,0.022-0.452,0.034-0.676l-0.023-0.587c-0.02-0.829-0.194-1.642-0.42-2.437c-0.269-0.78-0.579-1.557-1.036-2.252
			c-0.195-0.368-0.479-0.677-0.713-1.021c-0.287-0.3-0.533-0.642-0.852-0.912c-0.587-0.595-1.284-1.062-1.994-1.497
			c-0.734-0.392-1.497-0.75-2.312-0.949c-0.407-0.131-0.799-0.183-1.192-0.253c-0.368-0.074-0.943-0.074-1.291-0.109
			c-0.84,0.021-1.688,0.07-2.503,0.293c-0.826,0.179-1.609,0.515-2.364,0.895c-0.736,0.417-1.448,0.89-2.07,1.473
			c-0.33,0.271-0.597,0.607-0.896,0.911c-0.25,0.344-0.552,0.655-0.763,1.028c-0.494,0.702-0.832,1.497-1.138,2.299
			c-0.257,0.849-0.456,1.601-0.507,2.524c-0.013,0.204-0.04,0.512-0.041,0.631l0.021,0.687c0.021,0.393-0.024,0.866,0.011,1.299
			C108.347,31.917,108.551,32.785,108.761,33.71z"/>
	</g>
	<g>
		<path fill="#6C7280" d="M47.878,14.982h2.717l5.415,14.078h-2.784l-1.103-2.9h-5.744l-1.146,2.9h-2.785L47.878,14.982z
			 M49.253,18.715l-1.888,4.833h3.766L49.253,18.715z"/>
		<path fill="#6C7280" d="M57.182,18.648h2.24v1.311c0.242-0.517,0.564-0.909,0.966-1.178c0.402-0.268,0.843-0.402,1.321-0.402
			c0.339,0,0.691,0.09,1.062,0.269l-0.813,2.249c-0.306-0.152-0.56-0.23-0.756-0.23c-0.403,0-0.742,0.249-1.021,0.747
			c-0.276,0.498-0.415,1.474-0.415,2.928l0.01,0.507v4.211h-2.595V18.648z"/>
		<path fill="#6C7280" d="M71.748,18.648h2.613v10.412h-2.613v-1.1c-0.51,0.485-1.021,0.834-1.534,1.047
			c-0.514,0.214-1.068,0.32-1.669,0.32c-1.344,0-2.507-0.521-3.487-1.565c-0.982-1.042-1.473-2.34-1.473-3.89
			c0-1.608,0.475-2.925,1.424-3.952c0.95-1.027,2.104-1.541,3.461-1.541c0.624,0,1.211,0.118,1.758,0.354
			c0.549,0.236,1.056,0.591,1.521,1.063V18.648z M69.001,20.792c-0.808,0-1.478,0.286-2.012,0.857
			c-0.534,0.57-0.801,1.303-0.801,2.196c0,0.9,0.271,1.64,0.815,2.22c0.543,0.581,1.213,0.872,2.007,0.872
			c0.821,0,1.501-0.285,2.042-0.857c0.54-0.57,0.811-1.318,0.811-2.243c0-0.907-0.271-1.641-0.811-2.202
			C70.512,21.073,69.829,20.792,69.001,20.792z"/>
		<path fill="#6C7280" d="M79.597,14.629v5.168c0.472-0.472,0.981-0.827,1.531-1.063c0.549-0.236,1.135-0.354,1.761-0.354
			c1.358,0,2.513,0.514,3.465,1.541c0.95,1.027,1.426,2.344,1.426,3.952c0,1.55-0.491,2.848-1.475,3.89
			c-0.982,1.043-2.146,1.565-3.492,1.565c-0.6,0-1.159-0.106-1.676-0.32c-0.518-0.213-1.03-0.563-1.54-1.047v1.1h-2.595V14.629
			H79.597z M82.343,20.792c-0.823,0-1.506,0.281-2.048,0.842c-0.542,0.561-0.813,1.295-0.813,2.202c0,0.925,0.271,1.673,0.813,2.243
			c0.542,0.572,1.225,0.857,2.048,0.857c0.797,0,1.469-0.291,2.015-0.872c0.545-0.58,0.818-1.32,0.818-2.22
			c0-0.893-0.269-1.625-0.804-2.196C83.836,21.078,83.159,20.792,82.343,20.792z"/>
		<path fill="#6C7280" d="M97.628,18.648h2.611v10.412h-2.611v-1.1c-0.512,0.485-1.022,0.834-1.535,1.047
			c-0.514,0.214-1.069,0.32-1.668,0.32c-1.346,0-2.509-0.521-3.489-1.565c-0.981-1.042-1.472-2.34-1.472-3.89
			c0-1.608,0.475-2.925,1.424-3.952c0.95-1.027,2.103-1.541,3.461-1.541c0.623,0,1.21,0.118,1.759,0.354
			c0.548,0.236,1.055,0.591,1.521,1.063V18.648z M94.881,20.792c-0.809,0-1.479,0.286-2.014,0.857
			c-0.534,0.57-0.801,1.303-0.801,2.196c0,0.9,0.272,1.64,0.815,2.22c0.544,0.581,1.214,0.872,2.008,0.872
			c0.821,0,1.501-0.285,2.041-0.857c0.54-0.57,0.812-1.318,0.812-2.243c0-0.907-0.271-1.641-0.812-2.202
			C96.391,21.073,95.706,20.792,94.881,20.792z"/>
	</g>
	<path fill="#009345" d="M2.341,30.918h21.976v7.46h-7.243v32.3H9.396v-32.3H2.341V30.918z"/>
	<path fill="#009345" d="M58.157,58.11H34.452c0.342,2.091,1.256,3.754,2.743,4.986c1.486,1.233,3.384,1.852,5.69,1.852
		c2.757,0,5.126-0.964,7.109-2.892l6.215,2.919c-1.549,2.197-3.404,3.825-5.567,4.879c-2.162,1.053-4.729,1.582-7.704,1.582
		c-4.611,0-8.371-1.455-11.271-4.366c-2.9-2.909-4.352-6.554-4.352-10.934c0-4.486,1.446-8.211,4.338-11.177
		c2.894-2.963,6.52-4.447,10.881-4.447c4.629,0,8.396,1.484,11.296,4.447c2.903,2.966,4.353,6.879,4.353,11.745L58.157,58.11z
		 M50.776,52.3c-0.486-1.642-1.449-2.976-2.882-4.002c-1.437-1.026-3.101-1.539-4.996-1.539c-2.058,0-3.863,0.577-5.414,1.729
		c-0.976,0.721-1.879,1.99-2.707,3.813H50.776z"/>
	<path fill="#009345" d="M64.076,41.27h7.38v3.381c1.263-1.388,2.663-2.423,4.205-3.109c1.543-0.684,3.224-1.028,5.044-1.028
		c1.84,0,3.5,0.451,4.978,1.353c1.479,0.901,2.668,2.216,3.57,3.945c1.173-1.729,2.611-3.044,4.315-3.945
		c1.702-0.901,3.566-1.353,5.586-1.353c2.091,0,3.932,0.487,5.52,1.46c1.587,0.973,2.728,2.244,3.42,3.811
		c0.694,1.568,1.042,4.119,1.042,7.65v17.245h-7.435V55.758c0-3.332-0.412-5.588-1.242-6.771c-0.829-1.181-2.071-1.77-3.73-1.77
		c-1.263,0-2.392,0.36-3.393,1.08c-1,0.722-1.743,1.717-2.229,2.987c-0.486,1.27-0.73,3.312-0.73,6.122v13.271h-7.432V56.435
		c0-2.631-0.196-4.537-0.584-5.718c-0.39-1.181-0.971-2.058-1.747-2.636c-0.776-0.575-1.715-0.863-2.817-0.863
		c-1.229,0-2.345,0.364-3.346,1.095c-1.004,0.729-1.752,1.752-2.25,3.066c-0.495,1.316-0.744,3.388-0.744,6.218v13.082h-7.38V41.27z
		"/>
	<path fill="#F05A28" d="M118.479,23.062c1.56,0,2.896,0.565,4.009,1.694c1.116,1.13,1.676,2.499,1.676,4.105
		c0,1.584-0.554,2.936-1.655,4.056c-1.106,1.118-2.426,1.678-3.965,1.678c-1.582,0-2.93-0.573-4.045-1.712
		c-1.115-1.141-1.671-2.524-1.671-4.153c0-1.563,0.551-2.898,1.655-4.006C115.587,23.616,116.919,23.062,118.479,23.062z"/>
	<rect x="115.353" y="41.27" fill="#009345" width="7.381" height="29.409"/>
	<path fill="#009345" d="M128.192,41.27h22.516l-13.212,23.165h12.456v6.244h-23.788l13.275-23.164h-11.247V41.27z"/>
	<path fill="#009345" d="M154.086,29.918h7.381v40.76h-7.381V29.918z"/>
	<path fill="#009345" d="M197.633,58.11h-23.705c0.341,2.091,1.256,3.754,2.741,4.986c1.486,1.233,3.385,1.852,5.689,1.852
		c2.758,0,5.129-0.964,7.11-2.892l6.216,2.919c-1.548,2.197-3.404,3.825-5.568,4.879c-2.16,1.053-4.73,1.582-7.702,1.582
		c-4.613,0-8.371-1.455-11.271-4.366c-2.902-2.909-4.353-6.554-4.353-10.934c0-4.486,1.445-8.211,4.34-11.177
		c2.892-2.963,6.519-4.447,10.878-4.447c4.63,0,8.398,1.484,11.301,4.447c2.9,2.966,4.351,6.879,4.351,11.745L197.633,58.11z
		 M190.252,52.3c-0.486-1.642-1.448-2.976-2.883-4.002c-1.437-1.026-3.101-1.539-4.995-1.539c-2.06,0-3.864,0.577-5.415,1.729
		c-0.977,0.721-1.878,1.99-2.708,3.813H190.252z"/>
</g>
</svg>
