<?xml version="1.0" encoding="utf-8"?>
<!-- Generator: Adobe Illustrator 16.0.0, SVG Export Plug-In . SVG Version: 6.00 Build 0)  -->
<!DOCTYPE svg PUBLIC "-//W3C//DTD SVG 1.1//EN" "http://www.w3.org/Graphics/SVG/1.1/DTD/svg11.dtd">
<svg version="1.1" id="Layer_1" xmlns="http://www.w3.org/2000/svg" xmlns:xlink="http://www.w3.org/1999/xlink" x="0px" y="0px"
	 width="80px" height="62.667px" viewBox="0 0 80 62.667" enable-background="new 0 0 80 62.667" xml:space="preserve">
<g>
	<path fill="#97E74E" d="M77.298,22.325c-0.462-4.465-0.926-8.927-1.391-13.391c-0.196-1.905-2.47-2.782-3.896-1.504
		c-0.714,0.64-1.428,1.278-2.142,1.917c-5.144-5.715-13.165-8.525-21.181-6.642c-3.75,0.883-7.041,2.689-9.695,5.118
		c8.941-1.801,17.744,2.843,22.313,9.192c-0.693,0.622-1.387,1.24-2.078,1.862c-1.49,1.333-0.734,3.799,1.244,4.069l14.174,1.944
		C76.152,25.095,77.455,23.837,77.298,22.325z"/>
	<path fill="#00C037" d="M74.975,25.938c-0.154,0-0.312-0.011-0.467-0.032l-14.174-1.944c-1.316-0.179-2.377-1.081-2.766-2.354
		c-0.389-1.271-0.017-2.611,0.975-3.497l1.375-1.231c-4.146-5.206-12.145-9.78-20.721-8.052l-3.621,0.729l2.726-2.493
		c2.858-2.616,6.37-4.467,10.153-5.359c7.771-1.826,15.904,0.549,21.477,6.208l1.396-1.249c0.949-0.849,2.275-1.092,3.463-0.634
		c1.188,0.459,2.007,1.531,2.141,2.798l1.389,13.39c0.107,1.036-0.26,2.046-1.008,2.77C76.676,25.604,75.843,25.938,74.975,25.938z
		 M42.938,6.404c3.111,0,6.256,0.681,9.271,2.021c3.966,1.764,7.493,4.604,9.932,7.991l0.539,0.749l-2.767,2.477
		c-0.394,0.352-0.536,0.863-0.381,1.367c0.153,0.506,0.559,0.849,1.081,0.922l14.175,1.942c0.403,0.055,0.802-0.077,1.095-0.359
		c0.293-0.282,0.438-0.677,0.396-1.083L74.889,9.04c-0.054-0.502-0.363-0.911-0.838-1.093c-0.47-0.183-0.978-0.089-1.354,0.248
		l-2.905,2.6l-0.685-0.761C64.032,4.396,56.3,1.971,48.925,3.706C46.648,4.24,44.479,5.16,42.52,6.409
		C42.659,6.406,42.798,6.404,42.938,6.404z"/>
</g>
<g>
	<path fill="#FFFFFF" d="M10.704,25.535H2.932c-0.562,0-0.955-0.139-1.18-0.422c-0.224-0.28-0.337-0.577-0.337-0.89
		c0-0.398,0.225-0.886,0.674-1.46l6.706-8.427H2.669c-0.424,0-0.721-0.111-0.889-0.329c-0.169-0.22-0.253-0.454-0.253-0.702
		c0-0.15,0.024-0.293,0.075-0.431c0.049-0.138,0.165-0.271,0.346-0.404c0.181-0.13,0.421-0.197,0.721-0.197h7.679
		c0.525,0,0.892,0.141,1.104,0.422c0.213,0.28,0.319,0.572,0.319,0.87c0,0.4-0.206,0.856-0.618,1.369l-6.817,8.502h6.368
		c0.437,0,0.743,0.112,0.917,0.336c0.175,0.225,0.263,0.463,0.263,0.713s-0.087,0.488-0.263,0.711
		C11.447,25.422,11.141,25.535,10.704,25.535z"/>
	<path fill="#FFFFFF" d="M21.323,19.691h-5.131v3.746h5.787c0.437,0,0.736,0.112,0.899,0.336c0.163,0.225,0.244,0.463,0.244,0.713
		s-0.081,0.488-0.244,0.711c-0.163,0.226-0.462,0.338-0.899,0.338h-6.743c-0.936,0-1.404-0.468-1.404-1.404V13.68
		c0-0.938,0.468-1.406,1.404-1.406h6.388c0.312,0,0.561,0.07,0.749,0.208c0.188,0.137,0.303,0.273,0.347,0.411
		c0.043,0.138,0.065,0.275,0.065,0.413c0,0.138-0.022,0.273-0.065,0.413c-0.044,0.138-0.159,0.273-0.347,0.411
		c-0.188,0.138-0.437,0.207-0.749,0.207h-5.432v3.37h5.131c0.437,0,0.733,0.105,0.89,0.318c0.157,0.212,0.234,0.438,0.234,0.673
		c0,0.14-0.021,0.272-0.065,0.404c-0.044,0.13-0.156,0.261-0.337,0.393C21.862,19.625,21.623,19.691,21.323,19.691z"/>
	<path fill="#FFFFFF" d="M32.597,25.066l-3.259-5.15h-1.723v4.457c0,0.5-0.125,0.847-0.374,1.04c-0.25,0.193-0.519,0.29-0.806,0.29
		s-0.556-0.097-0.805-0.29c-0.25-0.193-0.374-0.54-0.374-1.04V13.68c0-0.938,0.468-1.406,1.404-1.406h3.202
		c0.886,0,1.684,0.116,2.388,0.347c0.705,0.232,1.298,0.644,1.78,1.237c0.48,0.593,0.72,1.333,0.72,2.219
		c0,0.936-0.268,1.713-0.805,2.332c-0.537,0.618-1.28,1.033-2.228,1.245l2.79,4.101c0.188,0.275,0.281,0.543,0.281,0.806
		c0,0.325-0.109,0.597-0.327,0.814c-0.219,0.218-0.497,0.327-0.833,0.327C33.215,25.703,32.872,25.49,32.597,25.066z M27.615,14.259
		v3.728h1.929c1.897,0,2.847-0.642,2.847-1.928c0-0.65-0.257-1.111-0.768-1.387c-0.512-0.275-1.137-0.413-1.873-0.413H27.615z"/>
	<path fill="#FFFFFF" d="M50.65,18.868c0,2.059-0.672,3.742-2.014,5.046c-1.343,1.306-3.057,1.958-5.141,1.958
		c-2.061,0-3.758-0.652-5.094-1.958c-1.336-1.305-2.004-2.988-2.004-5.046c0-2.098,0.665-3.777,1.994-5.039
		c1.331-1.26,3.03-1.891,5.104-1.891c2.097,0,3.814,0.631,5.148,1.891C49.982,15.09,50.65,16.77,50.65,18.868z M48.085,18.868
		c0-1.387-0.421-2.541-1.265-3.465c-0.842-0.924-1.944-1.387-3.307-1.387c-1.348,0-2.443,0.463-3.286,1.387
		c-0.843,0.924-1.264,2.078-1.264,3.465c0,1.422,0.424,2.593,1.273,3.511c0.849,0.917,1.94,1.376,3.277,1.376
		c1.35,0,2.446-0.459,3.297-1.376C47.66,21.46,48.085,20.29,48.085,18.868z"/>
	<path fill="#FFFFFF" d="M19.375,30.914l-3.184,10.563c-0.275,0.888-0.786,1.33-1.536,1.33c-0.725,0-1.23-0.442-1.517-1.33
		l-2.791-8.708H10.31l-2.79,8.708c-0.287,0.888-0.799,1.33-1.535,1.33c-0.737,0-1.243-0.442-1.517-1.33L1.321,30.988
		c-0.063-0.225-0.094-0.431-0.094-0.618c0-0.338,0.115-0.615,0.347-0.833c0.231-0.22,0.515-0.329,0.853-0.329
		c0.611,0,1.024,0.375,1.235,1.124l2.454,8.783h0.038l2.66-8.447c0.312-0.972,0.83-1.46,1.555-1.46c0.724,0,1.242,0.488,1.555,1.46
		l2.603,8.447h0.038l2.51-8.82c0.211-0.724,0.618-1.086,1.218-1.086c0.323,0,0.599,0.107,0.824,0.318
		c0.224,0.212,0.337,0.493,0.337,0.843C19.45,30.583,19.425,30.763,19.375,30.914z"/>
	<path fill="#FFFFFF" d="M30.313,41.889l-0.955-2.286h-6.086l-0.956,2.303c-0.238,0.602-0.63,0.9-1.18,0.9
		c-0.337,0-0.618-0.105-0.843-0.318c-0.224-0.211-0.337-0.494-0.337-0.842c0-0.201,0.057-0.432,0.168-0.693L24.9,30.332
		c0.337-0.749,0.824-1.124,1.461-1.124c0.649,0,1.142,0.375,1.479,1.124l4.738,10.583c0.1,0.224,0.15,0.447,0.15,0.672
		c0,0.375-0.119,0.675-0.355,0.892c-0.238,0.22-0.524,0.328-0.862,0.328C30.962,42.807,30.562,42.5,30.313,41.889z M26.342,32.263
		l-2.229,5.318h4.42L26.342,32.263z"/>
	<path fill="#FFFFFF" d="M35.763,40.071c0.674,0.601,1.423,0.897,2.247,0.897c0.637,0,1.195-0.161,1.676-0.485
		c0.48-0.325,0.721-0.817,0.721-1.479c0-0.225-0.031-0.426-0.093-0.608c-0.063-0.181-0.179-0.347-0.347-0.497
		c-0.169-0.148-0.315-0.271-0.44-0.365c-0.125-0.093-0.346-0.199-0.665-0.318c-0.318-0.119-0.546-0.203-0.684-0.254
		c-0.138-0.049-0.413-0.135-0.824-0.262c-0.476-0.148-0.881-0.305-1.218-0.467c-0.337-0.162-0.684-0.384-1.04-0.665
		c-0.355-0.282-0.626-0.644-0.814-1.086c-0.188-0.442-0.281-0.959-0.281-1.546c0-1.261,0.478-2.227,1.433-2.893
		c0.955-0.668,2.088-1.002,3.398-1.002c1.187,0,2.16,0.286,2.922,0.861c0.387,0.275,0.58,0.606,0.58,0.992
		c0,0.288-0.098,0.533-0.291,0.731c-0.191,0.2-0.439,0.299-0.738,0.299c-0.252,0-0.513-0.099-0.787-0.299
		c-0.6-0.411-1.192-0.618-1.778-0.618c-0.612,0-1.155,0.154-1.63,0.459c-0.474,0.306-0.711,0.76-0.711,1.359
		c0,0.299,0.053,0.551,0.159,0.758c0.105,0.207,0.293,0.391,0.562,0.551c0.268,0.162,0.521,0.289,0.758,0.375
		c0.238,0.086,0.587,0.207,1.049,0.354c0.437,0.138,0.796,0.257,1.078,0.354c0.281,0.103,0.618,0.262,1.012,0.479
		s0.705,0.452,0.937,0.702c0.229,0.25,0.431,0.577,0.6,0.982c0.169,0.406,0.253,0.858,0.253,1.358c0,1.362-0.459,2.407-1.377,3.14
		c-0.916,0.729-2.069,1.094-3.456,1.094c-1.523,0-2.734-0.395-3.633-1.18c-0.35-0.289-0.524-0.611-0.524-0.976
		c0-0.299,0.105-0.558,0.318-0.778c0.211-0.215,0.474-0.326,0.786-0.326C35.207,39.716,35.488,39.833,35.763,40.071z"/>
	<path fill="#FFFFFF" d="M44.771,29.376h8.502c0.313,0,0.563,0.07,0.75,0.208c0.187,0.138,0.303,0.273,0.346,0.411
		c0.044,0.138,0.066,0.275,0.066,0.413c0,0.138-0.022,0.275-0.066,0.413c-0.043,0.138-0.158,0.273-0.346,0.411
		c-0.188,0.138-0.438,0.207-0.75,0.207h-3.071v10.038c0,0.5-0.125,0.849-0.374,1.039c-0.25,0.192-0.52,0.291-0.805,0.291
		c-0.289,0-0.557-0.099-0.808-0.291c-0.25-0.19-0.374-0.539-0.374-1.039V31.438h-3.07c-0.313,0-0.563-0.069-0.75-0.207
		c-0.188-0.138-0.303-0.273-0.347-0.411c-0.044-0.138-0.065-0.275-0.065-0.413c0-0.138,0.021-0.275,0.065-0.413
		c0.044-0.137,0.159-0.273,0.347-0.411C44.208,29.446,44.458,29.376,44.771,29.376z"/>
	<path fill="#FFFFFF" d="M63.293,36.794h-5.132v3.744h5.787c0.437,0,0.737,0.113,0.897,0.336c0.163,0.227,0.244,0.463,0.244,0.713
		c0,0.252-0.081,0.488-0.244,0.713c-0.16,0.226-0.462,0.339-0.897,0.339h-6.742c-0.937,0-1.404-0.47-1.404-1.406v-10.45
		c0-0.938,0.468-1.406,1.404-1.406h6.387c0.312,0,0.562,0.07,0.749,0.208s0.303,0.273,0.348,0.411
		c0.043,0.138,0.063,0.275,0.063,0.413c0,0.138-0.021,0.275-0.063,0.413c-0.045,0.138-0.16,0.273-0.348,0.411
		c-0.188,0.138-0.438,0.207-0.749,0.207h-5.432v3.37h5.132c0.438,0,0.732,0.105,0.891,0.318c0.155,0.211,0.232,0.438,0.232,0.674
		c0,0.139-0.021,0.271-0.064,0.404c-0.045,0.129-0.156,0.262-0.336,0.393C63.833,36.728,63.593,36.794,63.293,36.794z"/>
</g>
<path fill="#00C037" d="M55.167,61.566c-0.627,0-1.253-0.176-1.808-0.529l-11.361-7.221c-0.88-0.559-1.443-1.473-1.545-2.51
	c-0.104-1.037,0.268-2.045,1.02-2.766l3.975-3.922c0.404-0.398,1.054-0.396,1.451,0.01c0.397,0.404,0.394,1.055-0.01,1.451
	l-3.986,3.93c-0.303,0.293-0.448,0.689-0.408,1.092c0.042,0.406,0.263,0.764,0.605,0.984l11.361,7.221
	c0.428,0.271,0.941,0.277,1.377,0.023c0.436-0.259,0.678-0.711,0.646-1.215l-0.237-3.894l1.021-0.063
	c7.57-0.482,14.271-5.041,17.488-11.898c0.993-2.119,1.618-4.389,1.855-6.702c-1.965,2.587-4.541,4.746-7.594,6.347
	c-0.502,0.264-1.121,0.068-1.386-0.434c-0.264-0.502-0.069-1.123,0.433-1.385c3.853-2.02,6.863-5.006,8.711-8.634l1.676-3.292
	l0.264,3.684c0.275,3.865-0.449,7.769-2.101,11.287c-3.392,7.228-10.3,12.129-18.196,12.988l0.114,1.869
	c0.077,1.271-0.556,2.463-1.653,3.107C56.35,61.41,55.758,61.566,55.167,61.566z"/>
</svg>
