<?xml version="1.0" encoding="utf-8"?>
<!-- Generator: Adobe Illustrator 16.0.0, SVG Export Plug-In . SVG Version: 6.00 Build 0)  -->
<!DOCTYPE svg PUBLIC "-//W3C//DTD SVG 1.1//EN" "http://www.w3.org/Graphics/SVG/1.1/DTD/svg11.dtd">
<svg version="1.1" id="Layer_1" xmlns="http://www.w3.org/2000/svg" xmlns:xlink="http://www.w3.org/1999/xlink" x="0px" y="0px"
	 width="236.68px" height="34.333px" viewBox="0 0 236.68 34.333" enable-background="new 0 0 236.68 34.333" xml:space="preserve">
<path fill="#327A96" d="M35.491,2.492c0,0,11.976-2.978,38.72-1.077c12.042,0.856,17.362,2.027,18.946,2.408
	c1.584,0.378,3.232,0.38,3.866,3.737c0,0-1.077-7.35-47.335-2.471c0,0-0.824,0.127-3.487-0.316
	C43.539,4.33,35.491,2.492,35.491,2.492z"/>
<path fill="#4C6973" d="M52.094,11.238c0,0,0.444-4.055,6.337-4.627c5.892-0.57,15.002-1.414,27.692-0.252
	c9.162,0.838,8.681,0.507,9.441,1.204c0.761,0.698,6.973,7.479,7.226,7.794c0.253,0.317,0.189,1.522-0.888,1.902
	c-1.076,0.381-8.428,2.6-16.096,2.093c-7.667-0.506-19.454,0-36.309-8.429c0,0-0.064-0.317,1.267,0
	C52.094,11.238,52.094,11.238,52.094,11.238z"/>
<path fill="#4C6973" d="M52.252,16.434H36.251c0,0,9.253-6.782,9.57-6.876c0.316-0.094-6.021-5.035-12.325-4.844
	c-6.305,0.189-9.632,3.896-10.867,5.069c-1.236,1.172-9.633,9.642-9.633,9.642s-0.094-2.195-0.412-2.83
	c-0.316-0.634-1.552-0.76-2.786-0.222c-1.237,0.539-1.679,0.317-1.933,0.539c-0.253,0.222-2.692,2.597-1.458,3.611
	c1.234,1.015,3.801,2.06,4.941,2.218c0,0-8.966,4.404-10.361,9.314c0,0,6.368-10.488,36.738-14.149c0,0,9.695-0.902,12.025-0.902
	c2.329,0,2.502,0.049,2.502,0.049V16.434z"/>
<path fill="#327A96" d="M105.039,17.479h0.95c0,0,2.472,1.322,3.707,1.945c1.235,0.622,2.979,2.745,3.137,4.17
	c0.159,1.426,0.729,3.295-0.316,4.816c-1.044,1.52-4.976,2.503-5.513,2.757c0,0,0.773-0.634,2.082-1.329
	c1.31-0.7,2.67-1.617,3.178-2.821l-6.146-0.031c0,0-1.267-0.191-1.077-1.426c0.19-1.234,0.647-5.262,0.729-6.305
	c0.063-0.824,0.508-0.667,0.634-0.667L105.039,17.479z"/>
<path fill="#327A96" d="M86.187,32.465h6.146v0.191C92.333,32.656,89.671,34.904,86.187,32.465z"/>
<path fill="#327A96" d="M53.995,27.396h13.309c0,0-0.824-4.246-2.535-6.084s-7.92-2.885-8.65-2.932
	c-0.729-0.047-8.523-0.085-10.075,1.042c-1.553,1.128-2.662,2.269-0.475,4.487c2.186,2.218,9.98,8.904,31.939,8.396
	c0,0-17.237-1.744-23.542-4.469L53.995,27.396z"/>
<path fill="#423F43" d="M120.29,1.209h4.943l8.473,25.772l10.203-24.52c0,0,0.482-1.842,2.713-1.842
	c1.561,0,2.365,0.641,2.884,1.877c2.612,6.221,10.233,24.508,10.233,24.508l8.355-25.796h4.857l-10.16,30.595
	c0,0-0.981,1.908-2.699,1.908c-0.777,0-2.107-0.346-2.941-2.281c-2.66-6.168-10.609-24.855-10.609-24.855l-10.717,25.138
	c0,0-0.895,1.998-2.807,1.984c-1.572-0.01-2.626-1.529-2.824-2.145C127.657,23.711,120.29,1.209,120.29,1.209z"/>
<rect x="177.592" y="1.138" fill="#423F43" width="4.942" height="32.127"/>
<rect x="189.137" y="1.154" fill="#423F43" width="4.942" height="32.129"/>
<path fill="#423F43" d="M231.468,16.72c3.413-0.895,5.954-6.002,3.907-10.709c-2.048-4.708-8.169-4.856-8.169-4.856h-22.713
	l-3.272,4.502c0,0,23.751-0.077,25.75,0c2.46,0.097,4.284,1.483,4.38,4.591c0.094,3.105-1.412,3.954-2.472,4.472
	s-2.119,0.447-2.119,0.447h-25.681v18.101h25.232c4.567-0.094,10.075-1.789,10.357-8.378C236.95,18.297,231.468,16.72,231.468,16.72
	z M228.501,28.439c-1.247,0.354-1.932,0.376-2.096,0.376c-0.162,0-20.478,0-20.478,0v-9.768h21.632c0,0,3.531,0.234,4.096,3.907
	C232.222,26.626,229.75,28.085,228.501,28.439z"/>
</svg>
