<?xml version="1.0" encoding="utf-8"?>
<!-- Generator: Adobe Illustrator 16.0.0, SVG Export Plug-In . SVG Version: 6.00 Build 0)  -->
<!DOCTYPE svg PUBLIC "-//W3C//DTD SVG 1.1//EN" "http://www.w3.org/Graphics/SVG/1.1/DTD/svg11.dtd">
<svg version="1.1" id="Layer_1" xmlns="http://www.w3.org/2000/svg" xmlns:xlink="http://www.w3.org/1999/xlink" x="0px" y="0px"
	 width="170px" height="100px" viewBox="0 0 170 100" enable-background="new 0 0 170 100" xml:space="preserve">
<g>
	<path fill="#423F43" d="M59.385,3.979c0,0,14.007-3.483,45.283-1.259c14.082,1.001,20.307,2.372,22.158,2.815
		c1.854,0.445,3.781,0.445,4.521,4.373c0,0-1.26-8.597-55.361-2.89c0,0-0.964,0.148-4.076-0.37
		C68.798,6.129,59.385,3.979,59.385,3.979z"/>
	<path fill="#4C6973" d="M77.469,14.208c0,0,0.519-4.744,7.412-5.411s17.543-1.654,32.385-0.297
		c10.717,0.98,10.154,0.594,11.043,1.408c0.891,0.815,8.152,8.746,8.447,9.116c0.299,0.371,0.225,1.779-1.035,2.224
		c-1.26,0.444-9.855,3.038-18.824,2.445c-8.967-0.594-22.751-0.001-42.466-9.857c0,0-0.074-0.371,1.482,0
		C77.469,14.208,77.469,14.208,77.469,14.208z"/>
	<path fill="#4C6973" d="M77.654,20.284H58.941c0,0,10.821-7.93,11.192-8.042c0.37-0.111-7.042-5.89-14.416-5.667
		c-7.374,0.222-11.265,4.558-12.71,5.929c-1.445,1.371-11.265,11.277-11.265,11.277s-0.111-2.569-0.481-3.311
		s-1.815-0.889-3.262-0.259c-1.444,0.63-1.963,0.371-2.26,0.63c-0.296,0.259-3.15,3.038-1.705,4.224
		c1.445,1.186,4.447,2.408,5.78,2.594c0,0-10.486,5.151-12.117,10.895c0,0,7.448-12.268,42.966-16.548
		c0,0,11.339-1.056,14.063-1.056c2.723,0,2.927,0.055,2.927,0.055V20.284z"/>
	<path fill="#4C6973" d="M139.389,21.507h1.111c0,0,2.891,1.547,4.336,2.275c1.445,0.726,3.482,3.21,3.668,4.876
		c0.186,1.667,0.854,3.854-0.371,5.632c-1.223,1.78-5.816,2.929-6.447,3.224c0,0,0.904-0.74,2.436-1.556
		c1.529-0.814,3.125-1.889,3.717-3.297l-7.189-0.037c0,0-1.482-0.223-1.26-1.668c0.223-1.446,0.758-6.154,0.854-7.374
		c0.072-0.963,0.592-0.778,0.74-0.778L139.389,21.507z"/>
	<path fill="#4C6973" d="M117.34,39.034h7.189v0.222C124.529,39.256,121.416,41.887,117.34,39.034z"/>
	<path fill="#4C6973" d="M79.692,33.105h15.563c0,0-0.962-4.966-2.964-7.114c-2.001-2.149-9.265-3.374-10.116-3.428
		c-0.852-0.056-9.969-0.102-11.785,1.219c-1.815,1.319-3.112,2.654-0.555,5.248c2.556,2.594,11.673,10.412,37.352,9.82
		c0,0-20.158-2.039-27.532-5.225L79.692,33.105z"/>
	<radialGradient id="SVGID_1_" cx="138.166" cy="56.8203" r="184.1484" gradientUnits="userSpaceOnUse">
		<stop  offset="0" style="stop-color:#434044;stop-opacity:0.5"/>
		<stop  offset="0.5025" style="stop-color:#434044"/>
		<stop  offset="1" style="stop-color:#231F20"/>
	</radialGradient>
	<path fill="url(#SVGID_1_)" d="M0.467,46.853h7.781l13.34,40.576l16.064-38.602c0,0,0.76-2.9,4.268-2.9
		c2.458,0,3.724,1.009,4.542,2.955c4.113,9.794,16.111,38.583,16.111,38.583l13.154-40.612h7.648L67.379,95.021
		c0,0-1.545,3.001-4.25,3.001c-1.223,0-3.317-0.54-4.632-3.59c-4.187-9.709-16.703-39.131-16.703-39.131L24.924,94.877
		c0,0-1.408,3.146-4.419,3.125c-2.474-0.015-4.135-2.408-4.447-3.375C12.066,82.279,0.467,46.853,0.467,46.853z"/>
	<radialGradient id="SVGID_2_" cx="123.6426" cy="37.5513" r="184.1529" gradientUnits="userSpaceOnUse">
		<stop  offset="0" style="stop-color:#434044;stop-opacity:0.5"/>
		<stop  offset="0.5025" style="stop-color:#434044"/>
		<stop  offset="1" style="stop-color:#231F20"/>
	</radialGradient>
	<rect x="85.955" y="46.741" fill="url(#SVGID_2_)" width="7.782" height="50.582"/>
	
		<radialGradient id="SVGID_3_" cx="161.2852" cy="54.7461" r="224.3302" fx="157.2674" fy="55.4714" gradientUnits="userSpaceOnUse">
		<stop  offset="0" style="stop-color:#434044;stop-opacity:0.5"/>
		<stop  offset="0.5025" style="stop-color:#434044"/>
		<stop  offset="1" style="stop-color:#231F20"/>
	</radialGradient>
	<rect x="99.406" y="46.768" fill="url(#SVGID_3_)" width="7.781" height="50.582"/>
	<radialGradient id="SVGID_4_" cx="135.4971" cy="68.6787" r="144.2089" gradientUnits="userSpaceOnUse">
		<stop  offset="0" style="stop-color:#434044;stop-opacity:0.5"/>
		<stop  offset="0.5025" style="stop-color:#434044"/>
	</radialGradient>
	<path fill="url(#SVGID_4_)" d="M161.326,71.273c5.373-1.409,9.375-9.449,6.152-16.861c-3.225-7.41-12.859-7.644-12.859-7.644
		h-35.758l-5.15,7.087c0,0,37.389-0.124,40.537,0c3.873,0.151,6.746,2.334,6.893,7.227c0.148,4.892-2.225,6.225-3.891,7.04
		c-1.668,0.814-3.336,0.704-3.336,0.704h-40.426v28.497h39.723c7.189-0.146,15.859-2.816,16.305-13.192
		S161.326,71.273,161.326,71.273z M156.656,89.723c-1.963,0.556-3.037,0.592-3.297,0.592s-32.24,0-32.24,0V74.937h34.057
		c0,0,5.559,0.371,6.447,6.151C162.51,86.868,158.621,89.166,156.656,89.723z"/>
</g>
</svg>
