<svg id="Capa_1" enable-background="new 0 0 512 512" height="512" viewBox="0 0 512 512" width="512" xmlns="http://www.w3.org/2000/svg"><g><path d="m477.866 358.4c18.851 0 34.132-15.282 34.132-34.132v-221.869l-255.998-34.244-255.998 34.244v221.868c0 18.851 15.281 34.132 34.132 34.132h443.732z" fill="#6aabf0"/><path d="m488.304 99.229v225.038c0 18.851-15.282 34.132-34.132 34.132h23.694c18.851 0 34.132-15.282 34.132-34.132v-221.868z" fill="#4596ec"/><path d="m511.998 102.4v-68.268c0-18.85-15.281-34.132-34.132-34.132h-443.732c-18.851 0-34.132 15.282-34.132 34.132v68.268z" fill="#35495e"/><g><g><path d="m42.668 58.927h-8.533c-4.268 0-7.726-3.459-7.726-7.726s3.459-7.726 7.726-7.726h8.533c4.268 0 7.726 3.459 7.726 7.726s-3.459 7.726-7.726 7.726z" fill="#6ed5a1"/></g></g><g><g><path d="m93.867 58.927h-8.533c-4.268 0-7.726-3.459-7.726-7.726s3.459-7.726 7.726-7.726h8.533c4.268 0 7.726 3.459 7.726 7.726s-3.459 7.726-7.726 7.726z" fill="#ee6161"/></g></g><g><path d="m145.067 58.927h-8.533c-4.268 0-7.726-3.459-7.726-7.726s3.459-7.726 7.726-7.726h8.533c4.268 0 7.726 3.459 7.726 7.726s-3.458 7.726-7.726 7.726z" fill="#f9ce69"/></g><path d="m469.867 68.267h-274.133c-4.418 0-8-3.582-8-8v-18.134c0-4.418 3.582-8 8-8h274.133c4.418 0 8 3.582 8 8v18.133c0 4.419-3.582 8.001-8 8.001z" fill="#f5f5f5"/><path d="m475.367 229.365-28.849-28.849c-1.666-1.666-1.666-4.368 0-6.034l8.644-8.643c2.558-2.558.972-6.939-2.631-7.266l-52.203-4.746c-2.654-.241-4.877 1.982-4.635 4.635l4.746 52.203c.328 3.603 4.708 5.189 7.266 2.631l8.643-8.644c1.666-1.666 4.368-1.666 6.034 0l28.849 28.849c3.333 3.332 8.736 3.332 12.068 0l12.068-12.068c3.333-3.333 3.333-8.736 0-12.068z" fill="#f5f5f5"/><g><ellipse cx="256" cy="358.4" fill="#f5f5f5" rx="153.6" ry="153.6" transform="matrix(.707 -.707 .707 .707 -178.446 285.993)"/><path d="m256 204.8c-3.986 0-7.937.152-11.847.451 79.295 6.049 141.752 72.305 141.752 153.149s-62.458 147.101-141.752 153.149c3.91.298 7.861.45 11.847.45 84.831 0 153.6-68.769 153.6-153.6 0-84.83-68.769-153.599-153.6-153.599z" fill="#e0e0e0"/><g><ellipse cx="256" cy="358.4" fill="#6aabf0" rx="119.467" ry="119.467" transform="matrix(.707 -.707 .707 .707 -178.446 285.993)"/><path d="m256 238.934c-3.998 0-7.95.2-11.847.584 60.417 5.948 107.619 56.901 107.619 118.882s-47.202 112.934-107.619 118.882c3.897.384 7.849.584 11.847.584 65.979 0 119.466-53.487 119.466-119.467.001-65.978-53.486-119.465-119.466-119.465z" fill="#4596ec"/><g><g><g><path d="m220.757 445.098c-10.81-23.029-16.763-53.819-16.763-86.698s5.953-63.669 16.763-86.699c9.351-19.92 21.484-31.72 33.534-32.746-12.323.173-24.193 2.211-35.344 5.846-4.417 5.713-8.504 12.508-12.178 20.335-11.754 25.041-18.228 58.162-18.228 93.264s6.473 68.224 18.228 93.264c3.674 7.826 7.761 14.622 12.177 20.335 11.15 3.635 23.02 5.672 35.342 5.846-12.049-1.028-24.181-12.828-33.531-32.747z" fill="#4596ec"/></g><g><path d="m291.244 271.702c10.81 23.029 16.764 53.819 16.764 86.699 0 32.879-5.954 63.669-16.764 86.698-9.35 19.919-21.482 31.719-33.531 32.747 12.322-.173 24.192-2.211 35.342-5.846 4.417-5.713 8.504-12.508 12.178-20.335 11.754-25.041 18.227-58.163 18.227-93.264 0-35.102-6.474-68.224-18.227-93.264-3.674-7.827-7.761-14.622-12.178-20.335-11.151-3.635-23.021-5.672-35.344-5.846 12.049 1.026 24.182 12.826 33.533 32.746z" fill="#4596ec"/></g></g></g><g fill="#4596ec"><path d="m163.196 285.501c23.769 13.277 57.595 20.892 92.805 20.892 35.209 0 69.035-7.615 92.805-20.892.434-.243.833-.524 1.201-.833-3.247-4.134-6.767-8.043-10.522-11.713-21.452 11.437-51.709 17.985-83.483 17.985s-62.031-6.548-83.483-17.985c-3.755 3.669-7.275 7.579-10.523 11.713.367.309.765.59 1.2.833z"/><path d="m136.534 358.4c0 2.596.092 5.171.256 7.727h238.422c.163-2.555.255-5.13.255-7.727 0-2.596-.092-5.171-.255-7.726h-238.423c-.163 2.555-.255 5.13-.255 7.726z"/><path d="m348.805 431.299c-23.77-13.277-57.596-20.892-92.805-20.892s-69.035 7.615-92.804 20.892c-.435.243-.833.524-1.201.833 3.247 4.134 6.767 8.043 10.522 11.713 21.452-11.436 51.709-17.985 83.483-17.985 31.773 0 62.031 6.548 83.483 17.985 3.755-3.669 7.275-7.578 10.522-11.713-.367-.309-.765-.59-1.2-.833z"/></g></g></g><g><g><g><path d="m475.367 229.365-28.849-28.848c-1.666-1.666-1.666-4.368 0-6.034l8.644-8.643c2.558-2.558.972-6.939-2.631-7.266l-25.495-2.318c3.156.742 4.417 4.758 2.011 7.164l-8.644 8.643c-1.666 1.666-1.666 4.368 0 6.034l31.269 31.268c3.332 3.333 3.332 8.735 0 12.068l-6.255 6.255 5.813 5.813c3.333 3.332 8.735 3.332 12.068 0l12.068-12.068c3.334-3.333 3.334-8.736.001-12.068z" fill="#e0e0e0"/></g></g></g><path d="m477.866 0h-23.692c18.851 0 34.132 15.282 34.132 34.132v68.268h23.692v-68.268c0-18.85-15.281-34.132-34.132-34.132z" fill="#222f3d"/><path d="m469.625 34.133h-23.695c4.552 0 8.241 3.69 8.241 8.241v17.65c0 4.552-3.69 8.241-8.241 8.241h23.695c4.552 0 8.241-3.69 8.241-8.241v-17.65c.001-4.551-3.689-8.241-8.241-8.241z" fill="#e0e0e0"/></g></svg>