<svg id="Layer_1" enable-background="new 0 0 510 510" height="512" viewBox="0 0 510 510" width="512" xmlns="http://www.w3.org/2000/svg"><g><path d="m330 90v30.679l7.5 14.321 7.5-15v-30l-7.5-15z" fill="#e9f1ff"/><path d="m352.5 75-7.5 15v30l7.5 15 7.5-14.321v-30.679z" fill="#d5def0"/><path d="m180 285c0 90.982 74.019 165 165 165l10-180-10-150c-90.981 0-165 74.019-165 165z" fill="#6058ad"/><path d="m345 120v330c90.981 0 165-74.018 165-165 0-90.981-74.019-165-165-165z" fill="#453f81"/><g fill="#76e2f8"><path d="m0 180h150v30h-150z"/><path d="m45 360h120v30h-120z"/><path d="m75 240h75v30h-75z"/></g><path d="m0 300h135v30h-135z" fill="#6058ad"/><path d="m300 60v30h45l10-16.25-10-13.75z" fill="#ff617d"/><path d="m345 60h45v30h-45z" fill="#e7374e"/><g><g><path d="m450 285c0-5.09-.36-10.1-1.08-15-6.58-45.92-43-82.34-88.92-88.92-4.9-.72-9.91-1.08-15-1.08l-15 45 15 60 8.936 2.234 51.064 12.766z" fill="#fdbf00"/><path d="m345 180c-5.09 0-10.1.36-15 1.08-50.82 7.29-90 51.109-90 103.92 0 57.9 47.1 105 105 105l10-45-10-60z" fill="#e9f1ff"/></g><path d="m345 285v105c52.81 0 96.63-39.18 103.92-90 .72-4.9 1.08-9.91 1.08-15z" fill="#d5def0"/></g></g></svg>